<svg width="30" height="15" viewBox="0 0 30 15" fill="none" xmlns="http://www.w3.org/2000/svg">
<path d="M2.1687 4.31083C2.1687 3.57009 2.816 2.9696 3.61448 2.9696H23.494C24.2925 2.9696 24.9398 3.57009 24.9398 4.31083V10.6816C24.9398 11.4224 24.2925 12.0229 23.494 12.0229H3.61448C2.816 12.0229 2.1687 11.4224 2.1687 10.6816V4.31083Z" fill="black"/>
<path opacity="0.4" fill-rule="evenodd" clip-rule="evenodd" d="M3.61446 1.96368H23.494C24.8913 1.96368 26.0241 3.01453 26.0241 4.31082V10.6816C26.0241 11.9779 24.8913 13.0288 23.494 13.0288H3.61446C2.21711 13.0288 1.08434 11.9779 1.08434 10.6816V4.31082C1.08434 3.01453 2.21711 1.96368 3.61446 1.96368ZM0 4.31082C0 2.45898 1.61825 0.957764 3.61446 0.957764H23.494C25.4902 0.957764 27.1084 2.45898 27.1084 4.31082V10.6816C27.1084 12.5335 25.4902 14.0347 23.494 14.0347H3.61446C1.61825 14.0347 0 12.5335 0 10.6816V4.31082ZM30 7.49623C30 8.52682 29.2289 9.39034 28.1928 9.61739V5.37506C29.2289 5.60212 30 6.46564 30 7.49623Z" fill="black"/>
</svg>
