<svg width="18" height="14" viewBox="0 0 18 14" fill="none" xmlns="http://www.w3.org/2000/svg">
<path d="M9.00049 3.6576C11.6121 3.65772 14.1239 4.66712 16.0167 6.47718C16.1592 6.61693 16.387 6.61516 16.5274 6.47323L17.8899 5.09011C17.961 5.01813 18.0006 4.92061 18 4.81916C17.9994 4.7177 17.9586 4.62066 17.8867 4.54951C12.9188 -0.239486 5.08138 -0.239486 0.113468 4.54951C0.0415041 4.62061 0.000672511 4.71762 8.9596e-06 4.81907C-0.000654709 4.92053 0.0389042 5.01807 0.109932 5.09011L1.47278 6.47323C1.61307 6.61538 1.84107 6.61714 1.98351 6.47718C3.87652 4.667 6.38859 3.65759 9.00049 3.6576ZM9.00049 8.15747C10.4354 8.15738 11.8191 8.69387 12.8828 9.6627C13.0267 9.8002 13.2533 9.79722 13.3935 9.65598L14.7544 8.27286C14.8261 8.20032 14.8658 8.1019 14.8648 7.99963C14.8638 7.89736 14.822 7.79977 14.7489 7.72871C11.5099 4.69804 6.49385 4.69804 3.25483 7.72871C3.18166 7.79977 3.13992 7.89741 3.13896 7.99971C3.138 8.10201 3.1779 8.20042 3.24972 8.27286L4.61021 9.65598C4.75045 9.79722 4.97707 9.8002 5.12094 9.6627C6.18388 8.69451 7.56651 8.15807 9.00049 8.15747ZM11.6158 11.4584C11.6886 11.3865 11.7287 11.2877 11.7266 11.1851C11.7245 11.0825 11.6804 10.9854 11.6048 10.9166C10.1014 9.63755 7.89957 9.63755 6.39618 10.9166C6.32049 10.9853 6.27636 11.0825 6.2742 11.185C6.27204 11.2876 6.31206 11.3865 6.38479 11.4584L8.73924 13.848C8.80824 13.9182 8.90233 13.9578 9.00049 13.9578C9.09866 13.9578 9.19274 13.9182 9.26175 13.848L11.6158 11.4584Z" fill="black"/>
</svg>
